<?xml version="1.0" standalone="no"?>
<!DOCTYPE svg PUBLIC "-//W3C//DTD SVG 20010904//EN"
 "http://www.w3.org/TR/2001/REC-SVG-20010904/DTD/svg10.dtd">
<svg version="1.0" xmlns="http://www.w3.org/2000/svg"
 width="260.000000pt" height="260.000000pt" viewBox="0 0 260.000000 260.000000"
 preserveAspectRatio="xMidYMid meet">
<metadata>
Created by potrace 1.11, written by Peter Selinger 2001-2013
</metadata>
<g transform="translate(0.000000,260.000000) scale(0.100000,-0.100000)"
fill="#000000" stroke="none">
<path d="M445 2439 c21 -24 47 -53 58 -64 26 -29 80 -115 75 -120 -2 -3 -20 6
-39 19 -19 13 -45 27 -59 31 -20 6 -15 -4 31 -51 88 -94 89 -96 30 -73 -53 20
-91 25 -91 12 0 -5 23 -23 50 -42 66 -44 140 -110 140 -123 0 -6 -8 -4 -17 4
-26 23 -143 81 -150 74 -3 -3 2 -8 11 -12 18 -7 46 -54 46 -77 0 -11 -14 -11
-81 4 -81 17 -145 18 -176 0 -12 -6 -2 -11 38 -16 59 -8 119 -29 119 -42 0 -4
-30 -9 -68 -10 -76 -2 -168 -32 -210 -69 l-27 -23 35 9 c48 14 90 21 90 16 0
-3 -14 -20 -30 -38 -41 -44 -79 -123 -73 -149 5 -18 14 -12 70 45 35 36 69 66
74 66 5 0 0 -18 -11 -40 -18 -35 -26 -70 -16 -70 2 0 21 16 42 35 20 19 39 33
40 32 2 -2 -4 -22 -12 -47 -8 -24 -14 -55 -12 -69 3 -26 3 -26 27 10 25 36 68
71 106 85 17 7 16 2 -9 -40 -15 -26 -26 -49 -24 -51 2 -2 26 14 53 35 69 55
95 59 49 8 -46 -51 -73 -113 -80 -181 l-6 -52 36 61 c19 33 48 73 63 88 28 28
82 61 89 54 2 -2 -8 -26 -21 -53 -19 -36 -25 -64 -24 -109 l0 -61 34 71 c34
70 96 139 118 131 22 -7 13 -241 -11 -325 -23 -78 -55 -311 -56 -402 -1 -69
11 -135 30 -173 11 -21 13 -39 7 -70 -5 -24 -5 -59 0 -82 9 -42 10 -73 4 -143
-3 -32 0 -45 12 -51 9 -5 133 -11 276 -15 364 -8 507 -17 493 -31 -2 -2 -57
-13 -123 -25 -66 -11 -128 -23 -138 -26 -43 -13 3 -21 135 -23 189 -2 369 -19
418 -38 8 -4 17 -7 20 -8 68 -18 67 -40 -2 -54 -29 -5 -71 -13 -93 -16 -41 -6
-73 -20 -65 -28 6 -6 96 -16 217 -23 76 -5 106 -3 174 16 84 22 150 23 359 4
68 -6 74 -5 62 9 -17 20 -77 38 -267 81 -82 19 -163 40 -180 46 l-30 12 25 9
c55 19 223 36 364 37 82 1 151 3 153 5 3 4 -98 29 -167 42 -19 3 -73 13 -120
21 -50 9 -148 16 -237 17 -84 0 -151 2 -150 3 3 3 55 10 142 20 28 3 83 6 122
7 40 1 73 4 73 7 0 18 -101 65 -160 75 -3 1 -32 5 -65 10 -33 5 -63 9 -67 11
-5 1 -35 2 -68 3 -46 1 -60 4 -60 16 0 12 -14 15 -70 15 l-70 0 22 38 c12 20
32 55 44 77 17 30 24 63 29 130 4 50 8 96 11 103 2 7 -1 10 -6 7 -6 -3 -10 0
-11 7 -1 18 -7 48 -15 77 -4 14 -7 29 -6 34 1 4 -2 7 -8 7 -5 0 -10 6 -10 14
0 7 -9 24 -19 38 -17 21 -39 109 -33 131 1 4 -2 7 -8 7 -9 0 -15 -38 -11 -63
1 -5 -3 -6 -8 -3 -8 5 -5 205 4 249 2 9 -2 17 -8 17 -8 0 -8 3 -2 8 12 8 12 7
1 79 -8 56 -26 82 -26 39 0 -27 -35 -217 -51 -280 -6 -22 -14 -35 -17 -30 -8
11 -98 48 -147 60 -51 12 -107 12 -172 -1 -34 -7 -65 -10 -68 -7 -3 3 -5 0 -5
-6 0 -7 -6 -12 -13 -12 -21 0 -107 -46 -100 -54 3 -3 0 -6 -7 -6 -15 0 -89
-72 -114 -112 -14 -22 -16 -35 -8 -75 5 -26 13 -56 17 -66 4 -9 3 -17 -2 -17
-13 0 -35 85 -37 145 -1 28 -6 77 -11 110 -5 33 -8 67 -7 75 1 8 4 74 6 145 3
131 29 264 52 272 6 2 26 -17 45 -41 19 -25 37 -46 42 -46 10 0 9 49 -3 88
-15 55 14 21 41 -46 39 -101 51 -90 25 23 -8 33 -13 62 -10 64 5 5 74 -143 74
-160 0 -7 3 -9 7 -6 4 4 5 32 4 62 -2 35 2 55 9 55 11 0 56 -94 80 -168 7 -23
16 -40 19 -36 3 3 11 29 17 57 l11 52 15 -55 c9 -30 20 -75 25 -100 l9 -45 18
34 c19 36 24 111 11 170 -7 31 -6 32 13 22 11 -6 32 -26 47 -43 24 -30 26 -31
20 -8 -18 66 -79 141 -157 193 -20 13 -35 27 -31 30 8 9 64 -4 105 -24 56 -28
66 -23 28 16 -29 30 -88 59 -190 92 -22 7 34 53 66 53 13 0 24 4 24 8 0 9 -58
16 -140 16 -53 0 -54 0 -25 12 36 14 100 23 178 23 31 1 57 5 57 10 0 12 -75
41 -107 41 -50 0 -9 20 75 38 45 9 82 20 82 24 0 4 -30 8 -67 10 l-68 3 63 32
c35 17 95 39 135 50 l72 18 -74 3 c-66 3 -185 -14 -235 -34 -34 -13 0 31 59
78 30 23 52 44 50 46 -15 15 -282 -141 -380 -222 -91 -75 -80 -75 -105 1 -26
82 -84 200 -134 277 -43 63 -52 71 -62 55 -4 -8 -3 -9 4 -5 7 4 18 -17 32 -60
32 -105 28 -112 -32 -50 -57 58 -132 117 -182 143 l-31 16 40 -44z m484 -1644
c0 -5 -4 -3 -9 5 -5 8 -9 22 -9 30 0 16 17 -16 18 -35z m102 -192 c13 -16 12
-17 -3 -4 -10 7 -18 15 -18 17 0 8 8 3 21 -13z m66 -49 c-3 -3 -12 -4 -19 -1
-8 3 -5 6 6 6 11 1 17 -2 13 -5z"/>
</g>
</svg>
